<?xml version="1.0" standalone="no"?>
<!DOCTYPE svg PUBLIC "-//W3C//DTD SVG 20010904//EN" "http://www.w3.org/TR/2001/REC-SVG-20010904/DTD/svg10.dtd">
<svg version="1.0" xmlns="http://www.w3.org/2000/svg"
    width="1080.000000pt" height="1080.000000pt" viewBox="0 0 1080.000000 1080.000000"
    preserveAspectRatio="xMidYMid meet">

    <g transform="translate(0.000000,1080.000000) scale(0.100000,-0.100000)"
        fill="teal" stroke="none">
        <path
            d="M3870 8755 l0 -745 -742 -1 c-409 -1 -746 -1 -750 0 -5 0 -8 -1450
-8 -3224 l0 -3225 2615 0 2615 0 0 820 0 820 700 0 700 0 0 2204 0 2204 -952
946 -951 946 -1614 0 -1613 0 0 -745z m2970 -455 l0 -890 918 -2 917 -3 0
-1945 0 -1945 -2239 -3 c-1785 -2 -2241 0 -2248 10 -9 16 -11 5652 -1 5661 3
4 602 7 1330 7 l1323 0 0 -890z m1564 -572 c-3 -4 -284 -8 -625 -8 l-619 0 0
632 0 633 624 -624 c344 -344 623 -628 620 -633z m-4534 -2288 l0 -2240 1705
0 1705 0 -2 -657 -3 -658 -2290 0 -2290 0 -3 2898 -2 2897 590 0 590 0 0
-2240z" />
        <path
            d="M5282 5162 l-542 -2 2 -543 3 -542 545 0 545 0 3 539 c1 297 -1 542
-5 545 -5 3 -252 5 -551 3z"
            fill="#000000" />
    </g>
</svg>