<svg width="10" height="21" viewBox="0 0 10 21" fill="none" xmlns="http://www.w3.org/2000/svg">
    <path d="M4 19.3147C4 18.3878 4.00957 17.6199 4.02128 17.6082C4.03295 17.5965 4.80089 17.5869 5.72782 17.5869H7.41308V19.2935V21H5.70654H4V19.3147Z" fill="#1C242C" />
    <path fill-rule="evenodd" clip-rule="evenodd" d="M5.05708 1.02128C5.04537 1.03295 5.0358 1.38903 5.0358 1.8125V2.58249L4.661 2.61805C2.92939 2.78239 1.84741 3.57703 1.57599 4.88376C1.41807 5.64415 1.52866 6.45193 1.87102 7.03895C2.37807 7.90829 3.31497 8.49872 4.7433 8.84903L5.0358 8.92073V11.2962V13.6717L4.78244 13.6496C4.44824 13.6204 3.86442 13.4657 3.57909 13.3307C2.98193 13.0481 2.42167 12.552 1.92212 11.8634L1.85472 11.7705L1.43475 12.0358C1.20378 12.1816 1.0084 12.3113 1.00062 12.3239C0.992836 12.3365 1.05931 12.4529 1.14837 12.5825C1.98812 13.8052 3.11194 14.4613 4.65303 14.6287L5.01985 14.6686L5.0358 15.3702L5.05175 16.0718L5.53759 16.0806L6.02343 16.0894L6.03201 15.3796L6.04059 14.6699L6.43931 14.6302C8.10923 14.4638 9.16304 13.7961 9.57995 12.6403C9.71411 12.2684 9.76859 11.9062 9.76914 11.3828C9.77038 10.1306 9.31006 9.4104 8.1217 8.80533C7.74579 8.61394 7.59481 8.55292 7.09268 8.38957C6.48563 8.19206 6.34617 8.15139 6.18984 8.12641C6.08933 8.11033 6.05156 8.08797 6.03934 8.03732C6.03035 8.00013 6.02697 6.97927 6.03178 5.76874L6.04059 3.56778L6.20008 3.57751C6.64193 3.60443 7.33698 3.85946 7.727 4.13777C7.97147 4.31222 8.29622 4.65432 8.46483 4.91502C8.53855 5.029 8.60974 5.10632 8.63347 5.09815C8.65606 5.0904 8.86072 4.96166 9.08824 4.81209L9.50196 4.54013L9.41775 4.40482C9.29226 4.20329 8.99912 3.84159 8.83383 3.68443C8.1981 3.07997 7.4314 2.75088 6.34362 2.61557L6.04059 2.57786L6.03207 1.78893L6.02352 1H5.55092C5.29099 1 5.06875 1.00957 5.05708 1.02128ZM5.0358 5.70195V7.85209L4.96403 7.83534C4.00939 7.61247 3.35312 7.25694 2.98052 6.76073C2.70493 6.39372 2.59829 6.04954 2.59909 5.52951C2.60001 4.93965 2.75009 4.55936 3.11769 4.21547C3.50148 3.85649 4.25577 3.58226 4.93213 3.55589L5.0358 3.55183V5.70195ZM6.32767 9.23282C6.41539 9.25368 6.50151 9.2814 6.51906 9.29438C6.5366 9.30737 6.60119 9.32861 6.6626 9.34159C6.724 9.35458 6.93213 9.42922 7.12512 9.50749C8.2388 9.9592 8.64384 10.4718 8.64451 11.4306C8.64521 12.42 8.19784 13.0914 7.31705 13.4229C7.05529 13.5214 6.54725 13.625 6.26387 13.6376L6.04059 13.6475L6.03233 11.4466C6.0278 10.236 6.03131 9.22667 6.04014 9.20354C6.04898 9.18041 6.08142 9.16899 6.1122 9.17818C6.14298 9.18737 6.23995 9.21196 6.32767 9.23282Z" fill="white" stroke="white" stroke-width="0.3" />
</svg>
    