<svg width="28" height="28" viewBox="0 0 28 28" fill="none" xmlns="http://www.w3.org/2000/svg">
    <rect width="28" height="28" rx="5.25" fill="#006E74" fill-opacity="0.1" />
    <path fill-rule="evenodd" clip-rule="evenodd" d="M11.1026 9.88938C9.40806 11.5887 9.21311 11.7908 9.23331 11.8272C9.24342 11.8453 9.38692 11.9947 9.55222 12.1591L9.85272 12.458L11.2554 11.0447C12.0269 10.2673 12.6606 9.62488 12.6636 9.61698C12.6705 9.59918 12.0576 8.97379 12.0333 8.97379C12.0236 8.97379 11.6048 9.3858 11.1026 9.88938ZM13.8398 9.66366C13.7159 9.79064 12.6254 10.8908 11.4164 12.1085C10.2075 13.3262 9.03451 14.5087 8.80976 14.7363C8.58501 14.9639 8.00187 15.5509 7.51387 16.0408C6.70844 16.8494 6.62661 16.9378 6.62661 16.999C6.62661 17.0361 6.61794 17.1054 6.60733 17.1532C6.59671 17.2009 6.57335 17.3423 6.55537 17.4675C6.53741 17.5927 6.51413 17.7417 6.50366 17.7986C6.49317 17.8555 6.4743 17.9672 6.4617 18.0469C6.44912 18.1265 6.43011 18.2429 6.41943 18.3055C6.40877 18.3681 6.3856 18.5171 6.36797 18.6366C6.33791 18.8403 6.3264 18.9114 6.27519 19.2108C6.264 19.2762 6.24062 19.4228 6.22322 19.5366C6.18316 19.7989 6.15444 19.9805 6.12922 20.1315C6.11827 20.1969 6.10048 20.304 6.08963 20.3695C6.07881 20.4349 6.06054 20.5443 6.04906 20.6126C6.03758 20.6809 6.02183 20.796 6.01409 20.8684L6 21L6.08053 20.9876C6.12483 20.9808 6.27745 20.9559 6.4197 20.9323C6.56195 20.9087 6.73421 20.8811 6.80249 20.8709C6.87077 20.8607 6.9825 20.843 7.05078 20.8315C7.30286 20.7892 7.78794 20.7113 7.96119 20.6852C8.02947 20.6749 8.10396 20.6621 8.12672 20.6567C8.14948 20.6513 8.23328 20.6365 8.31294 20.6238C8.3926 20.6111 8.57417 20.5819 8.71642 20.5588C8.85867 20.5357 9.03558 20.5074 9.10955 20.4958C9.18352 20.4843 9.2906 20.4675 9.3475 20.4586C9.4044 20.4497 9.58433 20.4206 9.74736 20.3941L10.0438 20.3458L10.1993 20.1895C10.2849 20.1036 11.3061 19.0748 12.4686 17.9034C13.6312 16.7319 15.1922 15.1595 15.9376 14.409C16.683 13.6585 17.334 13.0031 17.3842 12.9524L17.4755 12.8603L16.7305 12.112C16.3207 11.7004 15.5534 10.9292 15.0253 10.3982L14.0651 9.43276L13.8398 9.66366ZM15.1139 11.7999C15.6751 12.3636 16.137 12.8371 16.1404 12.852C16.1473 12.8825 16.2311 12.7972 13.2374 15.8122C12.0284 17.0299 10.7144 18.354 10.3175 18.7547C9.84394 19.2326 9.578 19.4864 9.54407 19.4927C9.51562 19.4979 9.38992 19.5176 9.26474 19.5365C9.13955 19.5553 8.99523 19.5785 8.94402 19.5881C8.89281 19.5977 8.78108 19.6162 8.69573 19.6291C8.61038 19.6421 8.49399 19.6611 8.43709 19.6712C8.38019 19.6814 8.23587 19.7044 8.11638 19.7223C7.99688 19.7403 7.85256 19.7634 7.79566 19.7737C7.73876 19.784 7.62703 19.8027 7.54737 19.8153C7.46771 19.8279 7.34946 19.8483 7.28459 19.8607C7.12355 19.8915 7.09347 19.8774 7.11114 19.7794C7.12577 19.6981 7.18505 19.3345 7.24685 18.9469C7.25682 18.8843 7.27468 18.7726 7.28654 18.6986C7.29839 18.6247 7.32204 18.4757 7.33909 18.3676C7.35612 18.2595 7.38016 18.1105 7.3925 18.0365C7.42647 17.8327 7.44915 17.6887 7.47114 17.537C7.48211 17.4614 7.4991 17.3853 7.5089 17.3677C7.51869 17.3502 7.95035 16.9092 8.46815 16.3877C8.98592 15.8662 10.4559 14.3852 11.7347 13.0967C13.0136 11.8082 14.0675 10.7587 14.0768 10.7644C14.0861 10.7702 14.5528 11.2361 15.1139 11.7999ZM12.8568 20.0927C12.8403 20.1126 12.8348 20.2516 12.8387 20.5531L12.8443 20.985L16.9364 20.9902L21.0285 20.9955L21.0229 20.535L21.0173 20.0746L16.9489 20.0694C13.5106 20.065 12.8768 20.0686 12.8568 20.0927Z" fill="#006E74" />
    <path d="M15.4181 9.23794C15.4088 9.22093 15.7884 8.82382 16.5005 8.10586L17.5972 7L18.6916 8.09823C19.2935 8.70226 19.786 9.20541 19.786 9.21634C19.786 9.22726 19.2949 9.73215 18.6946 10.3383L17.6031 11.4405L16.5178 10.3523C15.9209 9.75379 15.4261 9.25234 15.4181 9.23794Z" fill="#1C242C" />
</svg>
    