<?xml version="1.0" standalone="no"?>
<!DOCTYPE svg PUBLIC "-//W3C//DTD SVG 20010904//EN" "http://www.w3.org/TR/2001/REC-SVG-20010904/DTD/svg10.dtd">
<svg version="1.0" xmlns="http://www.w3.org/2000/svg" width="268.000000pt" height="330.000000pt"
        viewBox="0 0 268.000000 330.000000" preserveAspectRatio="xMidYMid meet">

        <g transform="translate(0.000000,330.000000) scale(0.100000,-0.100000)" fill="#006e74"
                stroke="none">
                <path
                        d="M0 1650 l0 -1650 1340 0 1340 0 0 1153 0 1153 -504 497 -504 497
-836 0 -836 0 0 -1650z m1560 1015 l0 -465 475 0 475 0 0 -1015 0 -1015 -1170
0 -1170 0 0 1480 0 1480 695 0 695 0 0 -465z m810 -297 c0 -5 -146 -8 -325 -8
l-325 0 0 332 0 333 325 -325 c179 -179 325 -328 325 -332z" />
                <!-- <path
                        d="M820 1844 c0 -4 25 -46 56 -95 l55 -88 -60 -90 c-34 -50 -61 -93 -61
-96 0 -3 24 -5 53 -5 l52 0 29 55 c16 30 33 55 38 55 5 0 23 -22 40 -50 l31
-50 58 0 59 0 -57 87 c-31 49 -56 92 -56 98 0 5 25 49 57 98 l56 87 -52 0 -53
0 -34 -62 -34 -61 -34 61 -35 62 -54 0 c-30 0 -54 -3 -54 -6z" /> -->
                <!-- <path
                        d="M460 1795 l0 -45 60 0 60 0 0 -140 0 -140 50 0 50 0 0 140 0 140 55
0 55 0 0 45 0 45 -165 0 -165 0 0 -45z" /> -->
                <!-- <path
                        d="M1190 1795 l0 -45 55 0 55 0 0 -140 0 -140 50 0 50 0 0 140 0 140 55
0 55 0 0 45 0 45 -160 0 -160 0 0 -45z" /> -->
                <path fill="black"
                        d="M460 745 l0 -285 285 0 285 0 0 285 0 285 -285 0 -285 0 0 -285z" />
        </g>
</svg>