<?xml version="1.0" standalone="no"?>
<!DOCTYPE svg PUBLIC "-//W3C//DTD SVG 20010904//EN"
 "http://www.w3.org/TR/2001/REC-SVG-20010904/DTD/svg10.dtd">
<svg version="1.0" xmlns="http://www.w3.org/2000/svg"
 width="66.000000pt" height="61.000000pt" viewBox="0 0 66.000000 61.000000"
 preserveAspectRatio="xMidYMid meet">

<g transform="translate(0.000000,61.000000) scale(0.100000,-0.100000)"
fill="#006E74" stroke="none">
<path d="M193 581 c-60 -23 -64 -30 -52 -74 14 -51 5 -61 -51 -54 -53 6 -56 3
-79 -81 -9 -31 -8 -33 30 -52 49 -26 51 -51 4 -80 -32 -20 -33 -23 -23 -48 21
-47 50 -83 63 -78 8 3 30 8 50 12 l37 7 -7 -47 c-7 -45 -7 -46 26 -60 66 -27
81 -25 106 19 26 46 28 55 10 55 -7 0 -21 -16 -30 -35 -15 -31 -20 -35 -44
-29 -42 10 -45 13 -42 55 5 57 -17 75 -67 59 -35 -12 -39 -11 -56 10 -26 32
-22 53 13 74 24 14 29 23 25 40 -3 11 -6 26 -6 32 0 6 -16 19 -35 30 -22 11
-33 24 -30 32 3 8 8 25 11 39 6 23 10 24 50 18 36 -5 46 -3 64 15 18 18 20 26
11 52 -16 44 -15 47 22 63 31 14 33 14 63 -21 20 -24 37 -35 51 -32 17 3 14 9
-26 49 l-46 47 -42 -17z"/>
<path d="M480 476 c-7 -9 -23 -16 -37 -16 -19 0 -28 -9 -41 -40 -16 -38 -19
-40 -59 -40 -24 0 -43 -4 -43 -10 0 -5 23 -10 50 -10 48 0 51 2 67 35 18 38
38 45 48 17 8 -28 47 -43 75 -29 52 27 41 99 -16 105 -19 2 -36 -3 -44 -12z
m64 -28 c7 -12 6 -21 -3 -32 -18 -22 -38 -20 -51 3 -7 15 -6 24 6 36 19 18 33
16 48 -7z"/>
<path d="M299 460 c-117 -35 -163 -179 -88 -274 24 -30 88 -66 119 -66 31 0
24 18 -10 25 -17 4 -44 18 -61 32 -95 80 -72 217 43 256 54 19 51 44 -3 27z"/>
<path fill="#000000" d="M560 300 l0 -50 50 0 50 0 0 50 0 50 -50 0 -50 0 0 -50z"/>
<path d="M270 300 c0 -6 50 -10 130 -10 80 0 130 4 130 10 0 6 -50 10 -130 10
-80 0 -130 -4 -130 -10z"/>
<path d="M302 218 c3 -7 23 -14 46 -16 37 -3 42 -7 52 -38 8 -23 18 -34 31
-34 11 0 33 -10 49 -21 36 -27 72 -20 89 17 9 22 9 31 -3 49 -29 44 -87 40
-101 -5 -10 -32 -32 -23 -49 20 -16 39 -17 40 -67 40 -36 0 -49 -4 -47 -12z
m243 -68 c0 -30 -35 -40 -55 -15 -10 12 -10 18 0 30 20 25 55 15 55 -15z"/>
</g>
</svg>
