<svg width="46" height="50" viewBox="0 0 46 50" fill="none" xmlns="http://www.w3.org/2000/svg">
    <path d="M8.628 30.3547C11.5287 30.3547 14.422 31.584 15.7527 33.8093L12.6047 36.356C11.5333 35.3907 10.2273 34.686 8.602 34.686C6.84667 34.686 5.99067 35.4027 5.99067 36.07C5.99067 36.9553 6.80933 37.472 8.602 37.914L10.2093 38.3047C14.744 39.398 16.4107 41.4993 16.4107 44.1273C16.4107 47.5887 13.32 50 8.15333 50C5.26267 50 1.69867 48.7887 0.324667 46.2967L3.47333 43.75C4.748 45.0427 6.19067 45.8233 8.12667 45.8233C9.80267 45.8233 11.1333 45.264 11.1333 44.2587C11.1333 43.452 10.526 43.1407 8.86533 42.7247L7.17867 42.308C2.67067 41.1893 0.925333 38.6473 0.925333 36.2013C0.925333 33.0347 3.72533 30.3547 8.628 30.3547ZM45.2553 30.8947V35.3033H39.736V49.41H34.636V35.3033H29.1173V30.8947H45.2553ZM5.07867 0V10.9733C5.07867 13.1593 6.326 14.404 8.356 14.404C10.3853 14.404 11.6073 13.1593 11.6073 10.9733V0H16.6853V10.9493C16.6853 16.0393 13.6387 19.1053 8.382 19.1053C2.91733 19.1053 0 15.9093 0 10.9493V0H5.07867ZM40.782 5.48867V12.68H33.5907V5.48867H40.782Z" fill="white" />
    <rect x="33" y="5" width="8" height="8" fill="#1C242C" />
</svg>
    