<?xml version="1.0" standalone="no"?>
<!DOCTYPE svg PUBLIC "-//W3C//DTD SVG 20010904//EN" "http://www.w3.org/TR/2001/REC-SVG-20010904/DTD/svg10.dtd">
<svg version="1.0" xmlns="http://www.w3.org/2000/svg"
    width="850.000000pt" height="1740.000000pt" viewBox="0 0 850.000000 1740.000000"
    preserveAspectRatio="xMidYMid meet">

    <g transform="translate(0.000000,1740.000000) scale(0.100000,-0.100000)"
        fill="teal" stroke="none">
        <path
            d="M30 8711 c0 -4861 4 -8652 9 -8655 4 -3 41 40 81 96 40 56 77 107 82
113 5 5 53 71 108 145 55 74 103 140 108 145 5 6 26 35 47 65 21 30 84 116
140 190 56 74 119 160 141 191 21 31 49 69 62 85 29 38 212 285 232 314 8 12
27 35 43 53 15 17 27 34 27 37 0 7 179 249 228 308 15 19 30 41 33 50 4 10 20
31 35 49 16 17 36 41 44 53 8 12 44 61 79 109 35 47 80 109 100 137 20 28 46
64 59 80 12 16 67 90 122 164 55 74 110 148 122 164 13 16 41 54 62 85 38 54
172 236 218 295 13 16 40 54 61 84 21 30 43 60 48 66 32 39 185 246 211 287
18 27 36 49 40 49 3 0 17 17 29 38 24 39 198 276 222 302 8 8 31 40 52 70 21
30 42 59 46 65 17 20 264 353 279 375 17 25 235 319 248 335 5 6 26 35 47 65
21 30 42 59 47 65 28 33 238 319 238 324 0 3 13 20 28 38 15 18 45 57 66 88
22 30 43 55 48 55 4 0 8 5 8 10 0 6 43 67 95 136 52 69 95 129 95 133 0 3 12
20 28 37 15 16 39 49 54 72 52 78 55 77 155 -58 118 -162 361 -490 381 -517
10 -12 24 -31 32 -43 8 -12 58 -80 110 -150 52 -70 102 -138 110 -150 8 -12
27 -36 42 -54 15 -17 28 -34 28 -37 0 -4 58 -84 130 -179 71 -94 130 -174 130
-176 0 -2 63 -88 140 -190 77 -102 140 -188 140 -192 0 -4 15 -23 33 -44 17
-20 95 -122 172 -228 77 -105 194 -264 261 -353 66 -89 138 -187 159 -217 21
-30 42 -59 47 -65 13 -15 200 -269 218 -295 8 -12 27 -36 42 -54 15 -17 28
-34 28 -37 0 -5 163 -226 442 -598 68 -90 125 -169 127 -175 2 -6 8 -13 12
-16 4 -3 21 -24 36 -47 15 -22 38 -54 51 -69 72 -93 152 -205 152 -214 0 -5 4
-10 9 -10 4 0 27 -27 50 -61 23 -33 46 -66 52 -72 5 -7 61 -82 124 -167 63
-85 118 -160 123 -165 5 -6 26 -35 47 -65 21 -30 93 -128 159 -217 67 -90 164
-221 216 -293 52 -72 102 -139 111 -148 9 -9 32 -41 52 -69 19 -29 42 -59 50
-68 8 -8 36 -46 62 -85 26 -38 51 -70 56 -70 5 0 9 3376 9 8665 l0 8665 -4235
0 -4235 0 0 -8649z m7695 7857 c3 -13 4 -3205 3 -7095 -3 -7265 -2 -7144 -37
-7083 -13 22 -330 455 -383 524 -13 16 -40 54 -61 84 -21 30 -43 60 -48 66 -5
6 -61 81 -124 166 -63 85 -118 160 -123 165 -5 6 -26 35 -47 65 -21 30 -93
127 -159 215 -67 89 -129 172 -138 185 -10 14 -75 102 -145 196 -71 95 -135
182 -143 194 -8 12 -79 108 -157 213 -79 105 -143 193 -143 196 0 3 -13 20
-28 37 -15 18 -34 42 -42 54 -8 12 -59 81 -112 153 -54 72 -98 133 -98 136 0
3 -18 26 -40 51 -22 25 -40 48 -40 51 0 3 -44 64 -97 136 -54 72 -105 141
-113 153 -19 28 -22 32 -140 187 -55 73 -100 137 -100 143 0 5 -4 10 -9 10 -4
0 -28 28 -52 63 -24 34 -49 68 -57 76 -8 8 -25 32 -39 54 -21 33 -167 231
-203 274 -6 7 -10 17 -10 22 0 6 -6 14 -13 18 -8 4 -31 33 -52 63 -21 30 -77
107 -125 170 -48 63 -104 140 -126 171 -21 31 -49 69 -62 85 -12 16 -61 81
-108 144 -47 63 -89 116 -94 118 -7 3 -179 -218 -240 -308 -8 -12 -71 -98
-140 -190 -69 -92 -132 -178 -140 -190 -18 -26 -13 -19 -155 -208 -63 -85
-115 -156 -115 -158 0 -2 -6 -12 -14 -21 -8 -10 -78 -103 -156 -208 -77 -104
-154 -208 -171 -230 -16 -22 -81 -110 -144 -195 -63 -85 -119 -160 -124 -166
-5 -6 -27 -36 -48 -66 -21 -30 -48 -68 -61 -84 -60 -78 -222 -298 -222 -303 0
-3 -13 -20 -28 -37 -15 -18 -34 -42 -42 -54 -18 -26 -205 -280 -218 -295 -5
-6 -26 -35 -47 -65 -36 -52 -115 -158 -400 -540 -66 -88 -125 -170 -132 -182
-6 -12 -23 -33 -36 -47 -13 -15 -41 -51 -62 -81 -37 -53 -185 -254 -204 -276
-5 -6 -32 -44 -61 -84 -29 -40 -56 -78 -61 -84 -5 -6 -54 -72 -109 -146 -55
-74 -105 -143 -112 -152 -7 -9 -20 -26 -28 -38 -8 -12 -45 -63 -82 -113 -38
-50 -68 -93 -68 -96 0 -3 -11 -11 -24 -17 -20 -9 -26 -9 -30 3 -8 21 -7 14178
1 14186 3 4 1565 7 3469 7 l3464 0 5 -22z" />
        <path fill="#000000"
            d="M3917 14613 c-4 -3 -7 -584 -7 -1290 l0 -1283 26 -10 c16 -7 489 -9
1307 -8 l1282 3 3 1298 2 1297 -1303 0 c-717 0 -1307 -3 -1310 -7z" />
    </g>
</svg>