<?xml version="1.0" standalone="no"?>
<!DOCTYPE svg PUBLIC "-//W3C//DTD SVG 20010904//EN" "http://www.w3.org/TR/2001/REC-SVG-20010904/DTD/svg10.dtd">
<svg version="1.0" xmlns="http://www.w3.org/2000/svg" width="93.000000pt" height="157.000000pt"
    viewBox="0 0 93.000000 157.000000" preserveAspectRatio="xMidYMid meet">

    <g transform="translate(0.000000,157.000000) scale(0.100000,-0.100000)" fill="white" stroke="none">
        <path d="M2 788 l3 -783 460 0 460 0 3 783 2 782 -465 0 -465 0 2 -782z m848
-3 l0 -705 -385 0 -385 0 0 705 0 705 385 0 385 0 0 -705z" />
        <path d="M350 1270 l0 -40 120 0 120 0 0 40 0 40 -120 0 -120 0 0 -40z" />
        <path d="M317 1049 l-68 -62 -30 29 -29 28 -22 -22 -23 -22 53 -52 52 -53 87
87 88 88 -20 20 -20 20 -68 -61z" />
        <path d="M460 980 l0 -30 155 0 155 0 0 30 0 30 -155 0 -155 0 0 -30z" />
        <path d="M157 813 c-16 -16 -15 -19 15 -50 l32 -33 -32 -33 -32 -33 22 -22 22
-22 33 32 33 32 33 -32 33 -32 19 20 c18 20 18 21 -8 48 -33 35 -33 39 0 74
l27 28 -22 22 -22 22 -33 -32 -33 -32 -29 30 c-34 35 -35 35 -58 13z" />
        <path d="M460 700 l0 -30 155 0 155 0 0 30 0 30 -155 0 -155 0 0 -30z" />
        <path fill="#000000" d="M340 360 l0 -130 135 0 135 0 0 130 0 130 -135 0 -135 0 0 -130z" />
    </g>
</svg>