<?xml version="1.0" standalone="no"?>
<!DOCTYPE svg PUBLIC "-//W3C//DTD SVG 20010904//EN" "http://www.w3.org/TR/2001/REC-SVG-20010904/DTD/svg10.dtd">
<svg version="1.0" xmlns="http://www.w3.org/2000/svg"
    width="1331.000000pt" height="1329.000000pt" viewBox="0 0 1331.000000 1329.000000"
    preserveAspectRatio="xMidYMid meet">

    <g transform="translate(0.000000,1329.000000) scale(0.100000,-0.100000)"
        fill="teal" stroke="none">
        <path
            d="M5020 13250 c-141 -8 -287 -24 -405 -45 -44 -9 -95 -15 -113 -15 -18
0 -42 -5 -53 -10 -10 -6 -47 -15 -82 -20 -34 -5 -82 -14 -107 -20 -104 -26
-127 -32 -165 -39 -22 -4 -56 -12 -75 -18 -97 -31 -176 -53 -186 -53 -7 0 -25
-7 -40 -15 -16 -8 -36 -15 -45 -15 -9 0 -30 -7 -45 -15 -16 -8 -38 -15 -49
-15 -11 0 -29 -7 -39 -15 -11 -8 -28 -15 -37 -15 -10 0 -30 -6 -46 -14 -15 -8
-48 -22 -73 -31 -25 -9 -61 -24 -80 -32 -19 -8 -48 -21 -65 -28 -62 -26 -131
-57 -157 -71 -14 -8 -33 -14 -41 -14 -8 0 -20 -7 -27 -15 -7 -8 -20 -15 -30
-15 -10 0 -23 -7 -30 -15 -7 -8 -20 -15 -30 -15 -10 0 -23 -7 -30 -15 -7 -8
-19 -15 -28 -15 -8 0 -23 -6 -31 -14 -9 -7 -45 -28 -81 -47 -36 -19 -87 -49
-115 -66 -27 -18 -53 -33 -57 -33 -4 0 -36 -20 -72 -45 -37 -25 -69 -45 -72
-45 -8 0 -69 -44 -72 -52 -2 -5 -8 -8 -13 -8 -4 0 -36 -19 -69 -42 -34 -24
-68 -47 -77 -53 -9 -5 -26 -20 -39 -31 -13 -12 -43 -34 -66 -50 -24 -16 -45
-31 -48 -34 -3 -3 -36 -30 -75 -60 -38 -30 -77 -62 -86 -70 -8 -8 -44 -40 -80
-70 -214 -184 -415 -389 -588 -599 -20 -25 -62 -76 -95 -115 -32 -39 -66 -82
-75 -96 -9 -14 -24 -34 -34 -45 -25 -28 -178 -253 -232 -341 -16 -27 -33 -50
-37 -52 -4 -2 -8 -8 -8 -14 0 -6 -30 -60 -66 -122 -36 -61 -69 -118 -74 -126
-20 -35 -140 -279 -160 -325 -12 -27 -28 -65 -36 -82 -14 -32 -32 -72 -58
-135 -8 -18 -22 -53 -31 -78 -9 -25 -23 -60 -31 -78 -8 -18 -14 -41 -14 -50 0
-10 -7 -27 -15 -38 -8 -10 -15 -27 -15 -37 0 -11 -6 -33 -14 -50 -8 -18 -16
-43 -19 -57 -3 -14 -10 -38 -16 -55 -31 -89 -98 -344 -111 -425 -4 -25 -12
-65 -18 -90 -16 -66 -32 -156 -41 -235 -5 -38 -14 -101 -20 -140 -57 -368 -55
-1055 4 -1406 8 -47 15 -104 15 -126 0 -22 7 -60 15 -83 8 -23 15 -59 15 -80
0 -21 7 -57 15 -80 8 -23 15 -59 15 -79 1 -20 7 -47 15 -61 8 -14 14 -38 15
-54 0 -15 7 -49 15 -75 8 -25 21 -71 30 -101 28 -97 57 -194 70 -230 7 -19 18
-51 25 -70 6 -19 14 -46 17 -60 3 -14 12 -34 19 -45 8 -11 14 -27 14 -36 0
-10 6 -30 14 -46 8 -15 22 -48 31 -73 29 -78 46 -117 108 -250 55 -117 107
-221 131 -265 12 -22 36 -65 52 -95 29 -53 100 -172 136 -228 10 -15 21 -34
25 -42 10 -22 131 -199 164 -241 16 -20 29 -40 29 -43 0 -4 9 -17 21 -29 12
-12 32 -38 44 -58 13 -20 29 -42 37 -50 7 -8 38 -45 68 -84 146 -185 405 -455
625 -652 109 -97 342 -282 443 -350 45 -31 87 -62 93 -70 6 -7 16 -13 21 -13
6 0 27 -13 47 -28 20 -16 43 -32 51 -35 8 -4 27 -15 42 -25 43 -28 212 -128
228 -136 8 -4 42 -22 75 -40 134 -75 391 -198 525 -250 25 -10 58 -24 73 -32
16 -8 36 -14 46 -14 9 0 25 -6 36 -14 11 -7 31 -16 45 -19 33 -7 111 -35 131
-46 9 -5 34 -13 54 -17 21 -4 50 -13 64 -20 14 -8 36 -14 47 -14 12 0 35 -7
50 -15 16 -8 41 -15 55 -15 15 0 40 -7 55 -15 16 -8 41 -15 55 -15 15 0 43 -7
62 -15 20 -8 48 -15 63 -15 14 0 47 -6 73 -14 43 -14 139 -32 221 -42 19 -3
73 -11 120 -19 223 -37 380 -48 715 -53 196 -2 391 1 460 7 235 21 341 32 385
42 25 5 77 14 115 19 117 16 228 37 258 49 16 6 44 11 63 11 20 0 45 5 57 12
12 6 42 15 67 19 25 4 59 11 75 17 17 6 57 18 90 27 92 27 187 57 222 72 17 7
40 13 50 13 10 0 23 4 28 9 6 5 26 14 45 19 62 19 125 43 135 53 5 5 17 9 26
9 10 0 30 6 46 14 33 16 79 36 148 66 49 21 290 139 330 162 11 6 27 15 35 20
8 4 22 11 30 15 8 3 79 45 158 92 78 47 150 91 160 96 10 6 33 21 52 35 19 14
42 30 52 35 42 24 357 256 389 286 48 46 119 99 133 99 9 0 857 -841 1884
-1870 1027 -1029 1872 -1870 1877 -1870 6 0 132 121 280 270 l270 270 -1875
1875 c-1031 1031 -1876 1879 -1878 1883 -2 8 55 88 87 122 25 26 55 63 72 90
10 14 26 34 36 45 11 12 37 45 58 75 83 118 201 290 220 322 5 9 32 52 58 95
63 102 65 105 71 123 4 8 15 29 25 45 18 28 153 295 220 435 17 36 31 73 31
81 0 9 7 22 15 29 8 7 15 22 15 34 0 12 6 30 13 41 8 11 16 29 20 40 3 11 15
45 27 75 11 30 39 111 62 180 22 69 46 141 53 160 16 44 34 114 44 165 4 22
13 50 19 62 7 12 12 36 12 53 0 17 5 40 11 52 6 11 15 50 20 87 5 36 14 80 19
96 11 37 29 146 41 245 5 41 13 102 19 135 6 33 15 119 20 190 30 443 31 462
20 626 -23 342 -29 415 -35 459 -4 25 -13 88 -20 140 -15 111 -30 199 -50 290
-8 36 -16 79 -19 95 -2 17 -9 48 -15 70 -5 22 -15 60 -21 85 -6 25 -15 63 -20
85 -4 22 -13 54 -18 70 -6 17 -20 64 -32 105 -12 41 -25 84 -29 95 -4 11 -18
52 -30 90 -13 39 -29 84 -37 102 -8 17 -14 36 -14 41 0 6 -6 23 -14 39 -8 15
-22 48 -31 73 -16 43 -26 67 -59 145 -65 150 -199 416 -265 525 -11 19 -26 46
-32 60 -5 13 -13 27 -17 30 -4 3 -13 16 -20 30 -7 14 -35 59 -62 100 -28 41
-53 82 -57 90 -4 8 -20 34 -37 56 -17 23 -38 52 -46 64 -30 44 -204 275 -211
280 -4 3 -28 32 -53 64 -146 189 -520 561 -721 720 -27 22 -52 42 -55 46 -8
10 -171 134 -229 175 -97 67 -267 181 -282 189 -17 8 -40 22 -97 59 -38 25
-99 59 -202 113 -19 11 -37 21 -40 24 -9 10 -297 148 -405 194 -22 10 -53 23
-70 31 -16 7 -48 20 -70 28 -22 8 -59 22 -82 31 -117 44 -182 66 -228 77 -21
6 -44 14 -50 18 -5 5 -27 12 -49 15 -21 4 -46 11 -55 16 -16 9 -61 21 -161 45
-30 7 -68 18 -83 24 -16 6 -41 11 -56 11 -16 0 -45 7 -64 15 -20 8 -55 15 -77
15 -22 0 -57 7 -77 15 -19 8 -53 15 -75 15 -22 0 -70 6 -107 14 -84 19 -247
36 -426 46 -162 10 -622 9 -805 0z m955 -785 c39 -8 93 -15 120 -15 28 0 72
-7 99 -15 27 -8 65 -15 85 -15 20 0 56 -6 81 -14 25 -8 70 -19 100 -26 131
-26 156 -32 165 -41 5 -5 18 -9 30 -9 22 0 142 -35 192 -56 17 -8 40 -14 51
-14 12 0 23 -4 27 -9 3 -5 20 -13 38 -17 17 -3 45 -12 62 -19 16 -7 50 -21 75
-30 53 -20 91 -35 145 -59 22 -10 54 -24 70 -31 107 -47 423 -210 435 -224 3
-3 25 -17 50 -30 107 -57 512 -343 581 -410 9 -9 41 -36 70 -61 195 -164 459
-440 614 -643 19 -25 48 -60 65 -79 16 -18 30 -36 30 -41 0 -5 19 -34 43 -65
58 -76 148 -212 177 -267 6 -11 19 -33 30 -50 11 -16 24 -39 30 -50 6 -11 19
-33 29 -50 18 -28 152 -292 165 -325 3 -8 10 -22 14 -30 5 -8 16 -32 25 -53 9
-20 23 -52 31 -70 9 -17 18 -44 22 -60 3 -15 10 -30 15 -33 5 -3 9 -13 9 -22
0 -9 7 -30 15 -46 8 -15 15 -33 15 -40 0 -6 6 -23 14 -38 8 -15 17 -41 21 -59
4 -19 11 -40 16 -49 4 -8 17 -49 29 -90 12 -41 26 -88 32 -105 5 -16 12 -41
14 -55 3 -14 11 -47 19 -75 19 -69 35 -141 44 -200 4 -27 13 -77 19 -110 27
-143 34 -190 58 -435 12 -119 19 -442 12 -554 -15 -259 -41 -479 -74 -627 -7
-37 -14 -81 -14 -99 0 -17 -5 -41 -11 -52 -6 -11 -15 -44 -19 -72 -9 -56 -26
-124 -42 -171 -5 -16 -14 -50 -19 -75 -5 -24 -14 -49 -19 -54 -6 -6 -10 -21
-10 -35 0 -15 -6 -38 -14 -53 -8 -15 -17 -41 -21 -58 -4 -17 -13 -43 -21 -58
-8 -15 -14 -32 -14 -38 0 -7 -7 -25 -15 -40 -8 -16 -15 -36 -15 -44 0 -8 -7
-24 -15 -34 -8 -11 -15 -30 -15 -42 0 -12 -7 -27 -15 -34 -8 -7 -15 -19 -15
-27 0 -8 -6 -27 -13 -41 -8 -15 -21 -43 -29 -62 -37 -83 -126 -260 -161 -319
-21 -35 -43 -74 -48 -85 -6 -12 -15 -30 -22 -41 -7 -11 -24 -38 -37 -60 -14
-23 -29 -48 -35 -57 -53 -88 -302 -430 -356 -489 -13 -15 -51 -57 -83 -95 -67
-77 -324 -336 -402 -404 -107 -95 -168 -146 -188 -159 -11 -8 -23 -17 -26 -21
-10 -12 -140 -110 -145 -110 -3 0 -13 -6 -21 -13 -8 -6 -20 -17 -27 -22 -30
-25 -283 -188 -332 -215 -11 -6 -47 -26 -80 -45 -33 -19 -125 -66 -205 -106
-80 -39 -157 -78 -172 -85 -14 -8 -33 -14 -41 -14 -8 0 -20 -7 -27 -15 -7 -8
-21 -15 -30 -15 -10 0 -32 -7 -49 -15 -17 -8 -45 -22 -62 -30 -17 -8 -38 -15
-48 -15 -9 0 -26 -7 -37 -15 -10 -8 -28 -15 -39 -15 -11 0 -33 -7 -49 -15 -15
-8 -36 -15 -45 -15 -9 0 -29 -7 -45 -15 -16 -8 -46 -18 -68 -21 -21 -4 -41
-10 -43 -15 -3 -4 -27 -11 -53 -15 -26 -3 -52 -10 -58 -15 -6 -5 -33 -12 -60
-15 -27 -4 -57 -11 -68 -16 -10 -6 -42 -14 -70 -19 -28 -4 -75 -13 -103 -19
-29 -5 -77 -15 -105 -20 -29 -6 -97 -15 -151 -20 -54 -5 -115 -14 -135 -21
-52 -18 -947 -18 -979 -1 -12 7 -73 16 -135 21 -62 5 -126 14 -141 20 -16 6
-46 11 -67 11 -21 0 -51 5 -67 11 -15 7 -48 15 -73 19 -84 13 -354 85 -415
110 -30 12 -115 40 -154 50 -18 5 -38 13 -44 19 -6 6 -20 11 -32 11 -12 0 -30
7 -41 15 -10 8 -27 15 -36 15 -9 0 -29 6 -45 14 -15 7 -46 21 -68 31 -22 9
-53 23 -70 30 -36 16 -254 123 -275 135 -8 5 -22 11 -30 14 -8 3 -22 10 -30
16 -8 5 -67 40 -130 76 -63 37 -119 71 -125 76 -5 5 -54 38 -109 73 -92 61
-298 215 -375 281 -210 179 -351 316 -501 485 -129 145 -254 302 -330 414 -18
28 -52 77 -74 110 -23 33 -45 68 -51 77 -5 10 -35 59 -66 110 -31 51 -59 100
-63 108 -3 8 -15 29 -25 45 -11 17 -45 82 -76 145 -54 110 -69 141 -100 212
-8 18 -25 58 -39 89 -27 61 -52 125 -68 179 -5 19 -13 40 -17 45 -4 6 -17 44
-30 85 -13 41 -29 93 -36 115 -22 70 -41 136 -85 310 -7 28 -16 73 -19 100 -4
28 -10 55 -14 62 -4 6 -11 47 -16 90 -5 43 -14 107 -20 143 -29 176 -34 265
-34 635 -1 375 3 435 34 635 5 36 14 100 19 142 5 42 13 86 19 97 6 11 11 37
11 58 1 21 7 56 15 78 8 22 15 50 15 62 0 13 6 40 14 60 13 37 27 88 47 168 5
22 13 49 18 60 5 11 21 56 35 100 37 117 47 147 62 177 8 14 14 33 14 41 0 9
8 30 17 49 9 18 22 45 30 60 7 14 13 33 13 41 0 8 7 20 15 27 8 7 15 19 15 27
0 18 134 291 166 338 13 20 24 42 24 50 0 8 5 17 11 20 5 4 15 17 20 28 5 12
17 34 27 49 9 15 37 60 61 100 24 40 57 89 73 109 15 20 28 40 28 44 0 10 214
289 304 395 44 52 150 165 236 250 135 136 208 202 351 324 107 91 348 262
490 348 39 24 82 51 97 60 60 37 125 72 302 158 102 50 197 98 212 106 14 8
35 14 46 14 11 0 25 7 32 15 7 8 22 15 34 15 11 0 30 7 40 15 11 8 27 15 35
15 9 0 28 6 43 14 15 8 40 17 57 21 17 4 33 11 36 16 4 5 15 9 27 9 11 0 34 6
51 14 30 13 48 18 160 47 23 6 51 15 62 20 11 5 40 13 65 18 88 17 156 33 204
47 26 8 62 14 80 14 17 0 56 7 86 15 30 8 78 15 105 15 28 1 70 6 95 12 78 19
292 26 670 22 276 -3 382 -7 435 -19z" />
        <path fill="#000000"
            d="M4134 9155 c-2 -5 -3 -590 -2 -1300 l3 -1290 1270 -3 c699 -1 1285 0
1303 3 l32 6 0 1294 c0 1227 -1 1295 -17 1295 -2072 5 -2586 4 -2589 -5z" />
    </g>
</svg>