<svg width="21" height="20" viewBox="0 0 21 20" fill="none" xmlns="http://www.w3.org/2000/svg">
  <path fill-rule="evenodd" clip-rule="evenodd"
    d="M7.91841 0.0502243C7.91247 0.206682 7.45135 3.08484 7.42862 3.10757C7.41367 3.12252 7.29216 3.18041 7.15857 3.23618L6.91583 3.33762L5.66737 2.4128L4.41892 1.48797L2.96062 2.94497C2.15314 3.7517 1.517 4.44034 1.53523 4.48791C1.55332 4.53515 1.95764 5.1018 2.43363 5.74716L3.29914 6.92052L3.2035 7.19712L3.10786 7.47379L1.55393 7.70923L0 7.9446L0.0180213 10.0276L0.0360427 12.1106L1.23064 12.2905C1.88767 12.3895 2.57132 12.4924 2.74996 12.5192C3.01455 12.5589 3.09346 12.6044 3.17661 12.765C3.23265 12.8734 3.27852 13.0049 3.27852 13.0573C3.27852 13.1096 2.87918 13.6948 2.39111 14.358C1.90303 15.0211 1.50369 15.5867 1.50369 15.615C1.50369 15.6433 2.15642 16.3186 2.95427 17.1156L4.40486 18.5648L5.65795 17.6412C6.90709 16.7206 6.91187 16.7179 7.14724 16.7956C7.27714 16.8384 7.40971 16.9396 7.44179 17.0203C7.47395 17.101 7.5803 17.72 7.67826 18.3958C7.77621 19.0716 7.87315 19.7091 7.89376 19.8123L7.93124 20H10.0024H12.0736L12.11 19.8123C12.13 19.7091 12.2265 19.0716 12.3246 18.3958C12.4225 17.72 12.5294 17.101 12.562 17.0203C12.5947 16.9396 12.7283 16.8382 12.859 16.7951C13.0963 16.7168 13.0976 16.7175 14.3466 17.6427L15.5966 18.5687L17.0488 17.1176C17.8476 16.3195 18.5011 15.6433 18.5011 15.615C18.5011 15.5867 18.1018 15.0211 17.6137 14.358C17.1256 13.6948 16.7263 13.1096 16.7263 13.0573C16.7263 13.0049 16.7721 12.8734 16.8282 12.765C16.9113 12.6044 16.9902 12.5589 17.2548 12.5192C17.4335 12.4924 18.1171 12.3895 18.7742 12.2905L19.9688 12.1106L19.9868 10.0276L20.0048 7.9446L18.4509 7.70923L16.8969 7.47379L16.8013 7.19712L16.7057 6.92052L17.5712 5.74716C18.0472 5.1018 18.4515 4.53515 18.4696 4.48791C18.4878 4.44034 17.8521 3.75211 17.0451 2.94586L15.5877 1.48975L14.3354 2.41246L13.0832 3.33516L12.8433 3.23495C12.7113 3.17986 12.59 3.12129 12.5735 3.10491C12.5488 3.08013 12.0908 0.211256 12.086 0.0502243C12.0839 -0.0167414 7.921 -0.0167414 7.91841 0.0502243ZM11.299 2.59007L11.5069 3.98652L11.9485 4.14455C12.1914 4.23152 12.5743 4.38832 12.7993 4.4931L13.2086 4.68349L14.3094 3.87717C14.9147 3.43366 15.438 3.07085 15.472 3.07085C15.5061 3.07085 15.8665 3.40438 16.2729 3.81211L17.0119 4.55338L16.2164 5.6264C15.7789 6.2166 15.4053 6.74004 15.3863 6.7896C15.3673 6.83916 15.4267 7.02879 15.5183 7.21091C15.6099 7.39304 15.7552 7.74172 15.8412 7.98576C15.9271 8.2298 16.0155 8.45016 16.0376 8.47541C16.0597 8.50074 16.6153 8.60156 17.2724 8.69959C17.9294 8.79761 18.5515 8.89454 18.6547 8.91502L18.8424 8.9523V10.0009C18.8424 10.5776 18.8161 11.0658 18.7839 11.0856C18.7518 11.1056 18.1327 11.2135 17.4082 11.3255C16.6836 11.4375 16.0686 11.5536 16.0413 11.5835C16.0142 11.6134 15.9535 11.7607 15.9065 11.9109C15.8595 12.061 15.7138 12.421 15.5826 12.7108L15.344 13.2376L16.1812 14.3725L17.0184 15.5074L16.2762 16.252C15.868 16.6614 15.5095 16.9964 15.4795 16.9964C15.4495 16.9964 15.019 16.6961 14.5226 16.329C14.0263 15.9619 13.5217 15.5921 13.4011 15.5071L13.1819 15.3526L12.8892 15.5038C12.7281 15.587 12.3515 15.7513 12.0523 15.8691L11.5081 16.0833L11.3013 17.4444L11.0945 18.8054L10.002 18.8241L8.90951 18.8427L8.70472 17.4637L8.49994 16.0846L7.95417 15.8698C7.65402 15.7517 7.27667 15.587 7.11564 15.5038L6.82286 15.3526L6.60367 15.5071C6.48311 15.5921 5.97845 15.9619 5.48218 16.329C4.98584 16.6961 4.55531 16.9964 4.52527 16.9964C4.4953 16.9964 4.13679 16.6614 3.72858 16.252L2.98643 15.5074L3.8236 14.3725L4.66077 13.2376L4.42219 12.7108C4.29099 12.421 4.14525 12.061 4.09829 11.9109C4.05132 11.7607 3.99064 11.6134 3.96347 11.5835C3.92149 11.5375 1.49768 11.1299 1.24771 11.1269C1.18306 11.1261 1.16238 10.8624 1.16238 10.039V8.9523L1.3501 8.91509C1.45338 8.89461 2.07539 8.79707 2.73242 8.69822C3.38945 8.59945 3.94511 8.49855 3.96716 8.47405C3.98927 8.44954 4.07767 8.2298 4.16362 7.98576C4.24963 7.74172 4.39489 7.39304 4.4865 7.21091C4.57811 7.02879 4.6375 6.83916 4.61852 6.7896C4.59947 6.74004 4.22594 6.2166 3.78838 5.6264L2.99291 4.55338L3.73185 3.81211C4.13829 3.40438 4.50206 3.0716 4.54022 3.07256C4.57838 3.07344 5.10052 3.43681 5.70041 3.88003L6.79125 4.68581L7.30459 4.4486C7.58699 4.31814 7.97042 4.15957 8.15678 4.09622L8.49557 3.98106L8.71237 2.58734C8.83162 1.82082 8.93258 1.18516 8.93675 1.17485C8.94091 1.16448 9.42735 1.16448 10.0178 1.17485L11.0911 1.19362L11.299 2.59007Z"
    fill="#006E74" />
  <path d="M7.98865 12.0133V10.0336V8.05402H9.96827H11.9479V10.0336V12.0133H9.96827H7.98865Z" fill="#1C242C" />
</svg>