<?xml version="1.0" standalone="no"?>
<!DOCTYPE svg PUBLIC "-//W3C//DTD SVG 20010904//EN" "http://www.w3.org/TR/2001/REC-SVG-20010904/DTD/svg10.dtd">
<svg version="1.0" xmlns="http://www.w3.org/2000/svg"
    width="249.000000pt" height="249.000000pt" viewBox="0 0 249.000000 249.000000"
    preserveAspectRatio="xMidYMid meet">

    <g transform="translate(0.000000,249.000000) scale(0.100000,-0.100000)"
        fill="white" stroke="none">
        <path
            d="M10 1245 l0 -1235 1235 0 1235 0 0 1235 0 1235 -1235 0 -1235 0 0
-1235z m2338 3 l-3 -1103 -1102 -3 -1103 -2 0 1105 0 1105 1105 0 1105 0 -2
-1102z" />
        <path
            d="M1690 1925 l-105 -105 78 0 77 0 0 -240 0 -240 -505 0 -505 0 0 -150
0 -150 55 0 55 0 0 95 0 95 508 2 507 3 3 293 2 292 70 0 c39 0 70 3 70 8 0 8
-192 202 -200 202 -3 0 -52 -47 -110 -105z" />
        <path
            d="M580 1865 c0 -3 17 -29 38 -58 21 -29 48 -66 59 -83 l22 -30 -65 -87
c-35 -48 -64 -89 -64 -92 0 -3 25 -5 55 -5 l55 0 36 55 c20 30 40 55 43 55 3
0 22 -25 41 -55 l35 -55 64 0 63 0 -24 33 c-13 17 -44 58 -68 90 l-43 58 62
90 62 89 -59 0 -58 0 -29 -50 c-16 -27 -33 -50 -38 -50 -4 0 -22 23 -39 50
l-31 50 -58 0 c-33 0 -59 -2 -59 -5z" />
        <path fill="#000000" d="M550 715 l0 -235 235 0 235 0 -2 233 -3 232 -232 3 -233 2 0 -235z" />
        <path
            d="M1590 883 c0 -3 10 -20 23 -37 13 -17 40 -54 60 -82 l37 -52 -58 -78
c-32 -44 -61 -85 -66 -91 -5 -10 6 -13 48 -13 l55 0 40 56 39 55 39 -55 38
-55 62 -1 63 0 -66 90 c-41 57 -63 94 -58 102 4 7 29 42 54 78 69 96 69 90 5
90 l-55 0 -36 -57 -37 -56 -35 56 -35 57 -58 0 c-33 0 -59 -3 -59 -7z" />
    </g>
</svg>