<?xml version="1.0" standalone="no"?>
<!DOCTYPE svg PUBLIC "-//W3C//DTD SVG 20010904//EN"
 "http://www.w3.org/TR/2001/REC-SVG-20010904/DTD/svg10.dtd">
<svg version="1.0" xmlns="http://www.w3.org/2000/svg"
 width="164.000000pt" height="164.000000pt" viewBox="0 0 164.000000 164.000000"
 preserveAspectRatio="xMidYMid meet">

<g transform="translate(0.000000,164.000000) scale(0.100000,-0.100000)"
fill="white" stroke="none">
<path d="M780 1532 l0 -109 -79 -17 c-121 -26 -212 -76 -303 -166 -90 -90
-148 -197 -169 -310 l-12 -69 -106 -3 -106 -3 -3 -32 -3 -33 106 0 c76 0 107
-4 109 -12 2 -7 11 -48 21 -91 46 -209 194 -373 399 -442 41 -14 90 -25 110
-25 l35 0 3 -107 3 -108 35 0 35 0 3 108 3 107 35 0 c20 0 69 11 110 25 205
69 353 233 399 442 10 43 19 84 21 91 2 8 33 12 109 12 l106 0 -3 33 -3 32
-106 3 -106 3 -12 69 c-41 230 -235 426 -472 476 l-79 17 0 109 0 108 -40 0
-40 0 0 -108z m0 -277 l0 -95 40 0 40 0 0 95 0 95 33 -6 c220 -39 393 -197
442 -406 8 -35 15 -66 15 -70 0 -4 -44 -9 -97 -10 l-98 -3 -3 -32 -3 -33 95 0
c53 0 98 -4 101 -10 11 -18 -16 -124 -52 -199 -61 -128 -187 -232 -332 -275
-101 -30 -100 -31 -103 81 l-3 98 -35 0 -35 0 -3 -97 c-3 -113 -2 -112 -103
-82 -145 43 -271 147 -332 275 -36 75 -63 181 -52 199 3 6 48 10 101 10 l95 0
-3 33 -3 32 -97 3 c-61 2 -98 7 -98 13 0 6 7 38 16 72 56 217 233 371 467 406
4 0 7 -42 7 -94z"/>
<path fill="black" d="M690 820 l0 -130 130 0 130 0 0 130 0 130 -130 0 -130 0 0 -130z"/>
</g>
</svg>
