<svg width="17" height="22" viewBox="0 0 17 22" fill="none" xmlns="http://www.w3.org/2000/svg">
    <path fill-rule="evenodd" clip-rule="evenodd" d="M8.22368 1.02927C6.02906 1.31894 4.42409 3.13844 4.42409 5.33671C4.42409 6.05219 4.55229 6.59543 4.88657 7.29625C5.09701 7.73742 5.24767 7.94056 5.69894 8.39183C6.15022 8.84311 6.35336 8.99377 6.79452 9.20421C7.49534 9.53849 8.03859 9.66668 8.75407 9.66668C11.1616 9.66668 13.083 7.74753 13.0792 5.34657C13.0764 3.63938 12.1351 2.14296 10.6044 1.41244C9.91717 1.08444 8.96559 0.93128 8.22368 1.02927ZM9.76824 2.25228C10.6614 2.54252 11.4339 3.27374 11.7829 4.15921C12.6081 6.25238 11.0263 8.57865 8.77807 8.57865C7.83314 8.57865 7.14385 8.29199 6.47132 7.61946C5.79879 6.94693 5.51212 6.25763 5.51212 5.31271C5.51212 4.42443 5.84979 3.64367 6.5069 3.01268C7.4035 2.15173 8.6002 1.87268 9.76824 2.25228ZM5.60812 10.6589C4.09532 10.9448 2.7557 11.8511 1.90722 13.1627C1.53288 13.7413 1.33403 14.1959 1.14893 14.8956C1.00678 15.4332 1 15.5593 1 17.6669V19.875L1.17594 20.1742C1.39003 20.5385 1.72431 20.824 2.05104 20.922C2.40113 21.0268 15.2831 21.0256 15.6335 20.9207C15.9545 20.8246 16.3593 20.4754 16.5386 20.1401C16.6773 19.8807 16.6804 19.8263 16.6793 17.6349C16.6783 15.7214 16.6619 15.3311 16.567 14.9578C15.9939 12.7034 14.2083 11.0302 11.9485 10.63C11.3723 10.5279 6.17588 10.5516 5.60812 10.6589ZM11.9957 11.7521C13.43 12.0679 14.7206 13.1605 15.2772 14.5304C15.5742 15.2612 15.6244 15.7255 15.6244 17.7394V19.5928L15.4673 19.7498L15.3102 19.907H8.84021H2.37021L2.21315 19.7498L2.05603 19.5928L2.05654 17.7818C2.05712 15.4297 2.14953 14.8786 2.69976 13.9446C3.33606 12.8645 4.3487 12.105 5.58329 11.7816C6.01415 11.6688 6.29941 11.6575 8.7956 11.6543C11.0685 11.6513 11.6135 11.668 11.9957 11.7521Z" fill="white" stroke="white" stroke-width="0.2" />
    <path d="M4.48828 17.9229V16.0669V14.2108H6.34433H8.20038V16.0669V17.9229H6.34433H4.48828Z" fill="#1C242C" stroke="#006E74" stroke-width="0.2" />
</svg>
    