<?xml version="1.0" standalone="no"?>
<!DOCTYPE svg PUBLIC "-//W3C//DTD SVG 20010904//EN" "http://www.w3.org/TR/2001/REC-SVG-20010904/DTD/svg10.dtd">
<svg version="1.0" xmlns="http://www.w3.org/2000/svg" width="268.000000pt" height="330.000000pt"
    viewBox="0 0 268.000000 330.000000" preserveAspectRatio="xMidYMid meet">
    <g transform="translate(-250.000000,450.000000) scale(0.100000,-0.100000)" fill="#006e74"
        stroke="none">
        <path
            d="M3030 3000 l0 -1200 970 0 970 0 0 838 0 839 -365 361 -364 362 -606
0 -605 0 0 -1200z m1130 740 l0 -340 345 0 345 0 0 -740 0 -740 -850 0 -850 0
0 1080 0 1080 505 0 505 0 0 -340z m538 -223 c-29 -4 -136 -6 -238 -5 l-185 3
-3 245 -2 245 240 -240 240 -240 -52 -8z" />
        <path
            d="M4240 3143 c-34 -13 -60 -47 -60 -78 0 -46 18 -64 90 -89 60 -20 65
-24 65 -51 0 -28 -3 -30 -39 -33 -27 -2 -47 3 -67 17 -26 19 -27 19 -43 2 -16
-17 -16 -20 0 -36 24 -24 59 -35 110 -35 37 0 51 6 75 29 59 59 27 131 -67
152 -60 14 -85 39 -63 65 14 17 72 18 99 2 16 -11 22 -9 34 7 12 17 12 21 -6
34 -22 15 -103 24 -128 14z" />
        <path
            d="M3409 3067 c35 -64 39 -76 27 -93 -7 -10 -27 -45 -45 -76 l-32 -58
28 0 c25 0 34 8 63 60 19 33 36 60 39 60 3 0 21 -27 39 -60 29 -53 36 -60 63
-60 17 0 28 3 26 8 -2 4 -23 40 -47 80 -29 50 -39 76 -33 85 6 6 24 38 42 70
l32 57 -28 0 c-23 0 -33 -8 -56 -50 -16 -28 -31 -50 -35 -50 -5 0 -21 23 -37
50 -24 42 -34 50 -58 50 l-28 0 40 -73z" />
        <path
            d="M3670 2990 l0 -150 95 0 c95 0 95 0 95 25 0 24 -2 25 -65 25 l-65 0
0 125 0 125 -30 0 -30 0 0 -150z"
            fill="#006E74" />
        <path
            d="M3900 3134 c0 -3 16 -33 35 -65 19 -33 35 -65 35 -71 0 -6 -18 -42
-40 -80 -22 -39 -40 -72 -40 -74 0 -2 12 -4 28 -4 23 0 32 10 60 60 18 33 35
60 37 60 2 0 20 -27 40 -60 31 -51 41 -60 65 -60 l29 0 -46 80 -45 80 28 47
c15 27 34 58 42 71 14 21 13 22 -16 22 -27 0 -34 -7 -58 -50 -15 -27 -31 -50
-35 -50 -4 0 -20 22 -36 50 -23 41 -33 50 -55 50 -16 0 -28 -3 -28 -6z" />
        <path fill="#000000" d="M3362 2343 l3 -208 203 -3 202 -2 0 210 0 210 -205 0 -205 0 2 -207z" />
    </g>
</svg>